<svg width="136" height="55" viewBox="0 0 136 55" fill="none" xmlns="http://www.w3.org/2000/svg">
<path d="M22.5508 10.064V2.19531H23.6553V5.65203H27.7448V2.19531H28.8373V10.0699H27.7448V6.61322H23.6553V10.0699H22.5508V10.064Z" fill="#A4D8E2"/>
<path d="M30.043 10.0636L32.8668 2.18896H34.037L36.8609 10.0636H35.7266L34.9325 7.80091H31.9654L31.1713 10.0636H30.043ZM32.2519 6.88747H34.64L33.7683 4.39792L33.4579 3.27553H33.434C33.3206 3.75314 33.2251 4.12926 33.1355 4.40389L32.2519 6.88747Z" fill="#A4D8E2"/>
<path d="M37.7617 10.0636L38.4065 2.18896H39.5528L41.3677 6.44568L41.7438 7.5024H41.7677C41.911 7.08449 42.0363 6.73225 42.1557 6.44568L43.9707 2.18896H45.1169L45.7498 10.0636H44.6572L44.2751 5.1024L44.2513 3.94419H44.2274C44.0662 4.42777 43.9229 4.81583 43.8035 5.1024L42.2334 8.64867H41.2543L39.696 5.1024L39.2722 3.92031H39.2483C39.2602 4.39195 39.2543 4.78598 39.2244 5.1024L38.8483 10.0636H37.7617Z" fill="#A4D8E2"/>
<path d="M0 21.0615V13.1929H4.65075V14.1541H1.10448V16.3511H2.83582C3.5403 16.3511 4.1194 16.56 4.56716 16.9779C5.01493 17.3959 5.23582 17.9809 5.23582 18.7212C5.23582 19.4197 5.0209 19.9869 4.58507 20.4168C4.14925 20.8466 3.58806 21.0615 2.89552 21.0615H0ZM1.10448 20.1063H2.71045C3.14627 20.1063 3.49254 19.9809 3.74328 19.7362C3.99403 19.4914 4.1194 19.1511 4.1194 18.7212C4.1194 18.2914 3.99403 17.9451 3.73731 17.6884C3.4806 17.4317 3.13433 17.3063 2.69254 17.3063H1.10448V20.1063Z" fill="#A4D8E2"/>
<path d="M6.25977 17.0735C6.25977 15.9451 6.64783 14.9899 7.42991 14.2197C8.212 13.4496 9.16723 13.0615 10.3075 13.0615C11.4478 13.0615 12.403 13.4496 13.1792 14.2197C13.9553 14.9959 14.3433 15.9451 14.3433 17.0735C14.3433 18.2317 13.9553 19.2108 13.1792 20.0048C12.403 20.7988 11.4478 21.1988 10.3075 21.1988C9.16723 21.1988 8.212 20.7988 7.42991 20.0048C6.64783 19.2108 6.25977 18.2317 6.25977 17.0735ZM7.39409 17.0735C7.39409 17.9511 7.67469 18.6914 8.24186 19.2884C8.80902 19.8854 9.49559 20.1839 10.3075 20.1839C11.1195 20.1839 11.806 19.8854 12.3672 19.2884C12.9284 18.6914 13.209 17.9511 13.209 17.0735C13.209 16.2257 12.9284 15.5093 12.3672 14.9302C11.806 14.3511 11.1195 14.0585 10.3075 14.0585C9.49559 14.0585 8.80902 14.3511 8.24186 14.9302C7.68066 15.5093 7.39409 16.2257 7.39409 17.0735Z" fill="#A4D8E2"/>
<path d="M14.8008 20.1363C15.4456 20.0467 15.9112 19.587 16.1859 18.7631C16.4605 17.9393 16.5978 16.6975 16.5978 15.0497V13.187H21.1948V21.0616H20.0844V14.1482H17.6426V15.0616C17.6426 17.0557 17.4276 18.5542 17.0038 19.5572C16.5739 20.5601 15.8396 21.0915 14.8008 21.1512V20.1363Z" fill="#A4D8E2"/>
<path d="M23.2598 21.0615V13.1929H24.3642V16.16H26.0359C26.7404 16.16 27.3195 16.3809 27.7672 16.8227C28.215 17.2645 28.4359 17.8675 28.4359 18.6376C28.4359 19.366 28.215 19.9511 27.7792 20.3988C27.3433 20.8466 26.7762 21.0675 26.0836 21.0675H23.2598V21.0615ZM24.3642 20.1063H25.8926C26.3404 20.1063 26.6866 19.975 26.9374 19.7182C27.1881 19.4556 27.3135 19.0973 27.3135 18.6376C27.3135 18.1779 27.1881 17.8078 26.9314 17.5332C26.6747 17.2585 26.3284 17.1212 25.8866 17.1212H24.3702V20.1063H24.3642Z" fill="#A4D8E2"/>
<path d="M29.8262 21.0615V13.1929H30.9306V20.1063H33.8441V13.1929H34.9486V20.1063H37.862V13.1929H38.9545V21.0675H29.8262V21.0615Z" fill="#A4D8E2"/>
<path d="M41.0391 21.0615V13.1929H45.6241V14.1541H42.1435V16.6197H44.9674V17.5809H42.1435V20.1123H45.8152V21.0735H41.0391V21.0615Z" fill="#A4D8E2"/>
<path d="M25.9434 31.1988C26.5881 31.1092 27.0538 30.6495 27.3284 29.8256C27.6031 29.0018 27.7404 27.76 27.7404 26.1122V24.2495H32.3374V32.1241H31.2329V25.2107H28.7911V26.1241C28.7911 28.1182 28.5762 29.6167 28.1523 30.6197C27.7225 31.6226 26.9881 32.154 25.9493 32.2137V31.1988H25.9434Z" fill="#A4D8E2"/>
<path d="M34.4043 32.124V24.2554H38.9894V25.2166H35.5088V27.6822H38.3327V28.6434H35.5088V31.1748H39.1804V32.136H34.4043V32.124Z" fill="#A4D8E2"/>
<path d="M42.5347 32.1241V25.2107H39.8242V24.2495H46.3377V25.2107H43.6272V32.1241H42.5347Z" fill="#A4D8E2"/>
<path d="M113.785 42.9421C120.472 40.9541 125.343 34.763 125.343 27.4317C125.343 26.0944 125.182 24.7929 124.872 23.5511C124.872 23.5511 124.872 23.5511 124.872 23.5451C123.242 13.0794 114.197 5.07345 103.272 5.07345C96.9435 5.07345 91.242 7.76002 87.2539 12.0585C92.0957 5.16897 100.102 0.66748 109.164 0.66748C113.529 0.66748 117.648 1.71226 121.284 3.563C126.591 7.19285 130.251 13.1152 130.758 20.0287C131.564 30.966 124.167 40.6078 113.785 42.9421Z" fill="url(#paint0_linear_321_11871)"/>
<path d="M133.898 37.6829C129.88 47.3784 120.316 54.1963 109.169 54.1963C105.539 54.1963 102.077 53.474 98.9245 52.1665C93.7783 49.2113 89.8439 44.1904 88.4529 37.9396C85.9454 26.6322 92.6857 15.4262 103.641 12.2202C97.6887 14.3874 93.3663 19.9456 93.0141 26.5545C92.9962 26.8471 92.9902 27.1337 92.9902 27.4322C92.9902 28.7754 93.1514 30.0829 93.4618 31.3307C95.7723 42.6023 106.519 50.2381 118.047 48.5426C124.99 47.5277 130.686 43.3486 133.898 37.6829Z" fill="url(#paint1_linear_321_11871)"/>
<path d="M135.929 27.4315C135.929 31.0614 135.206 34.5241 133.899 37.6823C130.687 43.348 124.991 47.5271 118.048 48.548C106.52 50.2375 95.7793 42.6017 93.4629 31.336C95.2062 38.3868 101.576 43.6166 109.164 43.6166C110.77 43.6166 112.317 43.3838 113.779 42.948C124.161 40.6136 131.552 30.9718 130.758 20.0345C130.257 13.1271 126.591 7.20467 121.284 3.56885C129.982 7.98676 135.929 17.0136 135.929 27.4315Z" fill="url(#paint2_linear_321_11871)"/>
<path d="M124.872 23.5454C123.135 16.4887 116.758 11.2528 109.164 11.2528C107.23 11.2528 105.373 11.5931 103.654 12.214C103.648 12.214 103.642 12.22 103.636 12.22C92.6809 15.426 85.9406 26.6319 88.454 37.9394C89.8451 44.1902 93.7794 49.211 98.9257 52.1663C89.2301 48.1424 82.4062 38.5842 82.4062 27.4319C82.4062 21.7125 84.2033 16.411 87.26 12.0588C91.248 7.7603 96.9495 5.07373 103.278 5.07373C114.197 5.07373 123.248 13.0797 124.872 23.5454Z" fill="url(#paint3_linear_321_11871)"/>
<path d="M50.2051 47.3955L55.1424 39.9925C56.6409 41.5388 58.4678 42.8224 60.6409 43.8433C62.8081 44.8642 65.017 45.3776 67.2618 45.3776C70.0021 45.3776 72.2708 44.6313 74.0678 43.1328C75.8648 41.6343 76.7603 39.7418 76.7603 37.4493C76.7603 34.7567 75.7036 32.7149 73.5842 31.3179C71.4648 29.9209 68.7364 29.2224 65.3931 29.2224H61.7275L59.6319 24.2851L69.3573 12.7687C69.9543 12.0224 70.5633 11.3119 71.1902 10.6373C71.8111 9.96269 72.3006 9.4791 72.6469 9.1806L73.1722 8.73284V8.58358C72.0737 8.73284 70.5036 8.80448 68.4618 8.80448H52.5991V0.5H84.9812V6.5597L72.0439 21.5925C76.0319 22.1418 79.4349 23.7716 82.2528 26.4881C85.0708 29.2045 86.4797 32.7328 86.4797 37.0731C86.4797 41.8612 84.7842 45.9627 81.3931 49.3776C78.0021 52.7925 73.4648 54.5 67.7812 54.5C64.5394 54.5 61.3633 53.891 58.2469 52.6672C55.1305 51.4433 52.4499 49.6881 50.2051 47.3955Z" fill="url(#paint4_linear_321_11871)"/>
<defs>
<linearGradient id="paint0_linear_321_11871" x1="94.1537" y1="1.72844" x2="127.711" y2="32.4095" gradientUnits="userSpaceOnUse">
<stop stop-color="#FBBA18"/>
<stop offset="1" stop-color="#E73735"/>
</linearGradient>
<linearGradient id="paint1_linear_321_11871" x1="132.013" y1="44.7431" x2="86.2306" y2="26.0466" gradientUnits="userSpaceOnUse">
<stop offset="0.1487" stop-color="#33BBD5"/>
<stop offset="0.7557" stop-color="#C6E5E9"/>
</linearGradient>
<linearGradient id="paint2_linear_321_11871" x1="125.755" y1="4.80049" x2="107.538" y2="49.6241" gradientUnits="userSpaceOnUse">
<stop stop-color="#FBBA18"/>
<stop offset="1" stop-color="#E73735"/>
</linearGradient>
<linearGradient id="paint3_linear_321_11871" x1="95.0709" y1="51.4655" x2="109.453" y2="4.48466" gradientUnits="userSpaceOnUse">
<stop offset="0.1487" stop-color="#33BBD5"/>
<stop offset="0.7557" stop-color="#C6E5E9"/>
</linearGradient>
<linearGradient id="paint4_linear_321_11871" x1="55.2754" y1="18.0133" x2="84.6313" y2="33.5734" gradientUnits="userSpaceOnUse">
<stop offset="0.2443" stop-color="#C6E5E9"/>
<stop offset="0.8513" stop-color="#33BBD5"/>
</linearGradient>
</defs>
</svg>
